#N canvas 103 1094 576 418 10;
#N canvas 186 168 779 706 sets 0;
#X obj 76 319 coll;
#C restore;
#X msg 76 165 0 0 10 18 28 \, 1 1 11 19 29 \, 2 2 12 20 30 \, 3 3 13
21 31 \, 4 4 14 22 32 \, 5 5 15 23 33 \, 6 6 16 24 34 \, 7 7 17 25
35 \, 8 8 18 26 36 \, 9 9 19 27 37 \, 10 10 20 28 38 \, 11 11 21 29
39 \, 12 12 22 30 40 \, 13 13 23 31 41 \, 14 14 24 32 42 \, 15 15 25
33 43 \, 16 16 26 34 44 \, 17 17 27 35 45 \, 18 18 28 36 46 \, 19 19
29 37 47 \, 20 20 30 38 48 \, 21 21 31 39 49 \, 22 22 32 40 50 \, 23
23 33 41 51 \, 24 24 34 42 52 \, 25 25 35 43 53 \, 26 26 36 44 54 \,
27 27 37 45 55 \, 28 28 38 46 56 \, 29 29 39 47 57 \, 30 30 40 48 58
\, 31 31 41 49 59 \,;
#X floatatom 76 290 5 0 0 0 - - -, f 5;
#X msg 54 465 0 0 4 8 12 \, 1 1 5 9 13 \, 2 2 6 10 14 \, 3 3 7 11 15
\, 4 4 8 12 16 \, 5 5 9 13 17 \, 6 6 10 14 18 \, 7 7 11 15 19 \, 8
8 12 16 20 \, 9 9 13 17 21 \, 10 10 14 18 22 \, 11 11 15 19 23 \, 12
12 16 20 24 \, 13 13 17 21 25 \, 14 14 18 22 26 \, 15 15 19 23 27 \,
16 16 20 24 28 \, 17 17 21 25 29 \, 18 18 22 26 30 \, 19 19 23 27 31
\, 20 20 24 28 32 \, 21 21 25 29 33 \, 22 22 26 30 34 \, 23 23 27 31
35 \, 24 24 28 32 36 \, 25 25 29 33 37 \, 26 26 30 34 38 \, 27 27 31
35 39 \, 28 28 32 36 40 \, 29 29 33 37 41 \, 30 30 34 38 42 \,;
#X obj 54 449 coll;
#C restore;
#X floatatom 51 384 5 0 0 0 - - -, f 5;
#X obj 462 79 coll;
#C restore;
#X floatatom 462 52 5 0 0 0 - - -, f 5;
#X msg 462 95 0 0 9 17 32 \, 1 1 10 18 33 \, 2 2 11 19 34 \, 3 3 12
20 35 \, 4 4 13 21 36 \, 5 5 14 22 37 \, 6 6 15 23 38 \, 7 7 16 24
39 \, 8 8 17 25 40 \, 9 9 18 26 41 \, 10 10 19 27 42 \, 11 11 20 28
43 \, 12 12 21 29 44 \, 13 13 22 30 45 \, 14 14 23 31 46 \, 15 15 24
32 47 \, 16 16 25 33 48 \, 17 17 26 34 49 \, 18 18 27 35 50 \, 19 19
28 36 51 \, 20 20 29 37 52 \, 21 21 30 38 53 \, 22 22 31 39 54 \, 23
23 32 40 55 \, 24 24 33 41 56 \, 25 25 34 42 57 \, 26 26 35 43 58 \,
27 27 36 44 59 \, 28 28 37 45 60 \, 29 29 38 46 61 \, 30 30 39 47 62
\,;
#X connect 1 0 0 0;
#X connect 2 0 0 0;
#X connect 3 0 4 0;
#X connect 5 0 4 0;
#X connect 7 0 6 0;
#X connect 8 0 6 0;
#X restore 224 20 pd sets;
#N canvas 219 803 635 504 unpacking 0;
#X obj 129 77 unpack f f f f;
#X obj 129 55 inlet;
#X floatatom 94 103 5 0 0 0 - - -, f 5;
#X floatatom 129 103 5 0 0 0 - - -, f 5;
#X floatatom 164 104 5 0 0 0 - - -, f 5;
#X floatatom 201 105 5 0 0 0 - - -, f 5;
#X obj 350 219 inlet;
#X obj 78 183 pipe 100;
#X obj 79 237 + 12;
#X obj 138 237 + 12;
#X obj 201 237 + 12;
#X obj 266 236 + 12;
#X obj 79 258 outlet;
#X obj 138 258 outlet;
#X obj 201 258 outlet;
#X obj 268 261 outlet;
#X obj 93 129 f;
#X obj 129 123 f;
#X obj 164 124 f;
#X obj 201 125 f;
#X obj 201 182 pipe 500;
#X obj 137 182 pipe 1000;
#X obj 264 182 pipe 2000;
#X obj 404 122 unpack f f f f;
#X floatatom 404 145 5 0 0 0 - - -, f 5;
#X floatatom 439 145 5 0 0 0 - - -, f 5;
#X floatatom 474 146 5 0 0 0 - - -, f 5;
#X floatatom 511 147 5 0 0 0 - - -, f 5;
#X obj 404 166 f;
#X obj 439 165 f;
#X obj 474 166 f;
#X obj 511 167 f;
#X msg 380 54 100 1000 500 2000;
#X msg 376 82 2000 500 1000 100;
#X obj 239 38 tgl 15 0 empty empty empty 17 7 0 10 -262144 -1 -1 0
1;
#X obj 239 57 expr abs($f1 - 1);
#X connect 0 0 2 0;
#X connect 0 1 3 0;
#X connect 0 2 4 0;
#X connect 0 3 5 0;
#X connect 1 0 0 0;
#X connect 2 0 16 0;
#X connect 3 0 17 0;
#X connect 4 0 18 0;
#X connect 5 0 19 0;
#X connect 6 0 8 1;
#X connect 6 0 9 1;
#X connect 6 0 10 1;
#X connect 6 0 11 1;
#X connect 7 0 8 0;
#X connect 8 0 12 0;
#X connect 9 0 13 0;
#X connect 10 0 14 0;
#X connect 11 0 15 0;
#X connect 16 0 7 0;
#X connect 17 0 21 0;
#X connect 18 0 20 0;
#X connect 19 0 22 0;
#X connect 20 0 10 0;
#X connect 21 0 9 0;
#X connect 22 0 11 0;
#X connect 23 0 24 0;
#X connect 23 1 25 0;
#X connect 23 2 26 0;
#X connect 23 3 27 0;
#X connect 24 0 28 0;
#X connect 25 0 29 0;
#X connect 26 0 30 0;
#X connect 27 0 31 0;
#X connect 28 0 7 1;
#X connect 29 0 21 1;
#X connect 30 0 20 1;
#X connect 31 0 22 1;
#X connect 32 0 23 0;
#X connect 33 0 23 0;
#X connect 34 0 35 0;
#X restore 23 188 pd unpacking;
#N canvas 182 803 450 300 noteouts 0;
#X obj 32 134 inlet;
#N canvas 0 803 450 300 noteout 0;
#X obj 52 239 noteout;
#X floatatom 97 189 0 0 0 0 - - -;
#X obj 52 205 f;
#X floatatom 129 207 0 0 0 0 - - -;
#X floatatom 156 206 0 0 0 0 - - -;
#X floatatom 52 150 5 36 67 0 - - -, f 5;
#X obj 52 130 + 36;
#X obj 52 223 makenote 60 64 1000;
#X obj 52 102 inlet;
#X obj 94 106 inlet;
#X obj 139 102 inlet;
#X obj 182 102 inlet;
#X connect 1 0 2 1;
#X connect 2 0 7 0;
#X connect 3 0 7 1;
#X connect 4 0 7 2;
#X connect 5 0 2 0;
#X connect 6 0 5 0;
#X connect 7 0 0 0;
#X connect 7 1 0 1;
#X connect 8 0 6 0;
#X connect 9 0 6 1;
#X connect 10 0 3 0;
#X connect 11 0 4 0;
#X restore 31 215 pd noteout;
#X obj 123 134 inlet;
#N canvas 0 23 450 300 noteout 0;
#X obj 52 239 noteout;
#X floatatom 97 189 0 0 0 0 - - -;
#X obj 52 205 f;
#X floatatom 129 207 0 0 0 0 - - -;
#X floatatom 156 206 0 0 0 0 - - -;
#X floatatom 52 150 5 36 67 0 - - -, f 5;
#X obj 52 130 + 36;
#X obj 52 223 makenote 60 64 1000;
#X obj 52 102 inlet;
#X obj 94 106 inlet;
#X obj 139 102 inlet;
#X obj 182 102 inlet;
#X connect 1 0 2 1;
#X connect 2 0 7 0;
#X connect 3 0 7 1;
#X connect 4 0 7 2;
#X connect 5 0 2 0;
#X connect 6 0 5 0;
#X connect 7 0 0 0;
#X connect 7 1 0 1;
#X connect 8 0 6 0;
#X connect 9 0 6 1;
#X connect 10 0 3 0;
#X connect 11 0 4 0;
#X restore 122 215 pd noteout;
#X obj 206 132 inlet;
#N canvas 0 23 450 300 noteout 0;
#X obj 52 239 noteout;
#X floatatom 97 189 0 0 0 0 - - -;
#X obj 52 205 f;
#X floatatom 129 207 0 0 0 0 - - -;
#X floatatom 156 206 0 0 0 0 - - -;
#X floatatom 52 150 5 36 67 0 - - -, f 5;
#X obj 52 130 + 36;
#X obj 52 223 makenote 60 64 1000;
#X obj 52 102 inlet;
#X obj 94 106 inlet;
#X obj 139 102 inlet;
#X obj 182 102 inlet;
#X connect 1 0 2 1;
#X connect 2 0 7 0;
#X connect 3 0 7 1;
#X connect 4 0 7 2;
#X connect 5 0 2 0;
#X connect 6 0 5 0;
#X connect 7 0 0 0;
#X connect 7 1 0 1;
#X connect 8 0 6 0;
#X connect 9 0 6 1;
#X connect 10 0 3 0;
#X connect 11 0 4 0;
#X restore 205 213 pd noteout;
#X obj 296 129 inlet;
#N canvas 0 23 450 300 noteout 0;
#X obj 52 239 noteout;
#X floatatom 97 189 0 0 0 0 - - -;
#X obj 52 205 f;
#X floatatom 129 207 0 0 0 0 - - -;
#X floatatom 156 206 0 0 0 0 - - -;
#X floatatom 52 150 5 36 67 0 - - -, f 5;
#X obj 52 130 + 36;
#X obj 52 223 makenote 60 64 1000;
#X obj 52 102 inlet;
#X obj 94 106 inlet;
#X obj 139 102 inlet;
#X obj 182 102 inlet;
#X connect 1 0 2 1;
#X connect 2 0 7 0;
#X connect 3 0 7 1;
#X connect 4 0 7 2;
#X connect 5 0 2 0;
#X connect 6 0 5 0;
#X connect 7 0 0 0;
#X connect 7 1 0 1;
#X connect 8 0 6 0;
#X connect 9 0 6 1;
#X connect 10 0 3 0;
#X connect 11 0 4 0;
#X restore 295 210 pd noteout;
#X floatatom 91 150 5 0 0 0 - - -, f 5;
#X obj 104 47 loadbang;
#X msg 104 71 5000;
#X connect 0 0 1 0;
#X connect 2 0 3 0;
#X connect 4 0 5 0;
#X connect 6 0 7 0;
#X connect 8 0 1 3;
#X connect 8 0 3 3;
#X connect 8 0 5 3;
#X connect 8 0 7 3;
#X connect 9 0 10 0;
#X connect 10 0 8 0;
#X restore 23 244 pd noteouts;
#N canvas 49 803 692 602 basicsets 0;
#X obj 135 258 coll;
#C restore;
#X floatatom 76 230 5 0 0 0 - - -, f 5;
#X obj 135 282 outlet;
#X obj 76 203 inlet;
#X msg 135 192 0 0 8 22 24 \, 1 0 9 23 30 \, 2 0 1 9 15 \, 3 0 6 19
28 \, 4 0 21 23 32 \, 5 0 2 3 20 \, 6 0 6 19 30 \, 7 0 15 25 32 \,
8 0 3 19 21 \, 9 0 13 17 18 \, 10 0 16 27 28 \, 11 0 2 18 32 \, 12
0 13 15 23 \, 13 0 10 15 19 \, 14 0 17 20 22 \, 15 0 21 24 25 \, 16
0 18 20 23 \, 17 0 1 26 29 \, 18 0 12 15 30 \, 19 0 1 21 24 \,;
#X obj 135 170 loadbang;
#X connect 0 0 2 0;
#X connect 1 0 0 0;
#X connect 3 0 1 0;
#X connect 4 0 0 0;
#X connect 5 0 4 0;
#X restore 23 150 pd basicsets;
#N canvas 0 803 509 521 choose 0;
#X obj 107 140 metro 2000;
#X obj 107 114 tgl 15 0 empty empty empty 17 7 0 10 -262144 -1 -1 0
1;
#X obj 107 88 inlet;
#X obj 163 102 inlet;
#X obj 109 211 outlet;
#X obj 189 224 outlet;
#X obj 189 180 random 10;
#X obj 109 187 random 21;
#X obj 189 202 + 24;
#X connect 0 0 6 0;
#X connect 0 0 7 0;
#X connect 1 0 0 0;
#X connect 2 0 1 0;
#X connect 3 0 0 1;
#X connect 6 0 8 0;
#X connect 7 0 4 0;
#X connect 8 0 5 0;
#X restore 23 100 pd choose;
#X obj 22 78 tgl 15 0 empty empty empty 17 7 0 10 -262144 -1 -1 0 1
;
#X floatatom 74 79 5 0 0 0 - - -, f 5;
#N canvas 745 954 487 426 recordDAC 0;
#X obj 162 41 r~ hz1;
#X obj 242 36 r~ hz2;
#X obj 172 72 r~ hz3;
#X obj 239 88 r~ hz4;
#X obj 122 280 writesf~ 2;
#X obj 44 143 dac~;
#X obj 162 141 send~ left;
#X obj 231 142 send~ right;
#X msg 351 181 start;
#X msg 393 181 stop;
#N canvas 1085 403 697 601 debug 0;
#X obj 88 157 inlet;
#X obj 19 244 *~ 0.01;
#X obj 17 508 outlet~;
#X floatatom 89 203 5 0 0 0 - - -, f 5;
#X obj 357 485 outlet~;
#X obj 73 78 inlet;
#X obj 557 59 tgl 15 0 empty empty empty 17 7 0 10 -262144 -1 -1 0
1;
#X obj 536 84 *~ 0;
#X obj 600 103 expr abs($f1 - 1);
#X floatatom 357 248 5 0 0 0 - - -, f 5;
#X obj 357 268 sig~;
#X floatatom 482 239 5 0 0 0 - - -, f 5;
#X obj 278 201 delwrite~ debugdelay 3000;
#X obj 357 297 vd~ debugdelay 3000;
#X obj 482 263 * 0.01;
#X obj 484 307 line~;
#X msg 483 283 \$1 1000;
#X obj 357 323 *~;
#X floatatom 529 320 5 0 0 0 - - -, f 5;
#X obj 529 344 * 0.01;
#X obj 531 388 line~;
#X msg 530 364 \$1 1000;
#X obj 357 437 *~;
#X obj 599 125 tgl 15 0 empty empty empty 17 7 0 10 -262144 -1 -1 0
1;
#X obj 18 353 +~;
#X obj 33 283 delwrite~ debugcomb 3000;
#X obj 186 259 vd~ debugcomb;
#X obj 89 177 * 5;
#X obj 19 222 r~ left;
#X obj 278 160 r~ right;
#X obj 162 14 loadbang;
#X obj 161 60 unpack f f f f f f f f;
#X floatatom 220 306 5 0 0 0 - - -, f 5;
#X obj 220 330 * 0.01;
#X obj 222 374 line~;
#X msg 221 350 \$1 1000;
#X obj 89 223 * 0.1;
#X obj 188 310 *~;
#X floatatom 180 119 5 0 0 0 - - -, f 5;
#X obj 182 187 line;
#X msg 181 163 \$1 2000;
#X obj 180 143 * 0.01;
#X obj 182 211 sig~ 100;
#X obj 33 383 tgl 15 0 empty empty empty 17 7 0 10 -262144 -1 -1 0
1;
#X obj 143 416 expr abs($f1 - 1);
#X obj 142 438 tgl 15 0 empty empty empty 17 7 0 10 -262144 -1 -1 0
1;
#X obj 18 479 *~;
#X obj 33 457 line~;
#X msg 32 433 \$1 1000;
#X obj 33 413 * 1;
#X obj 421 358 tgl 15 0 empty empty empty 17 7 0 10 -262144 -1 -1 0
1;
#X obj 421 432 line~;
#X msg 420 408 \$1 1000;
#X obj 421 388 * 1;
#X obj 357 458 *~;
#X msg 164 33 5 749 10 1000 56 92 1;
#X floatatom 580 230 5 0 0 0 - - -, f 5;
#X connect 0 0 27 0;
#X connect 1 0 25 0;
#X connect 1 0 24 0;
#X connect 3 0 36 0;
#X connect 6 0 7 1;
#X connect 6 0 8 0;
#X connect 8 0 23 0;
#X connect 9 0 10 0;
#X connect 10 0 13 0;
#X connect 11 0 14 0;
#X connect 13 0 17 0;
#X connect 14 0 16 0;
#X connect 15 0 17 1;
#X connect 16 0 15 0;
#X connect 17 0 12 0;
#X connect 17 0 22 0;
#X connect 18 0 19 0;
#X connect 19 0 21 0;
#X connect 20 0 22 1;
#X connect 21 0 20 0;
#X connect 22 0 54 0;
#X connect 24 0 46 0;
#X connect 26 0 37 0;
#X connect 27 0 3 0;
#X connect 28 0 1 0;
#X connect 29 0 12 0;
#X connect 30 0 55 0;
#X connect 31 0 3 0;
#X connect 31 1 38 0;
#X connect 31 2 32 0;
#X connect 31 3 9 0;
#X connect 31 4 11 0;
#X connect 31 5 18 0;
#X connect 32 0 33 0;
#X connect 33 0 35 0;
#X connect 34 0 37 1;
#X connect 35 0 34 0;
#X connect 36 0 1 1;
#X connect 37 0 24 1;
#X connect 38 0 41 0;
#X connect 39 0 42 0;
#X connect 40 0 39 0;
#X connect 41 0 40 0;
#X connect 42 0 26 0;
#X connect 43 0 44 0;
#X connect 43 0 49 0;
#X connect 44 0 45 0;
#X connect 44 0 50 0;
#X connect 46 0 2 0;
#X connect 47 0 46 1;
#X connect 48 0 47 0;
#X connect 49 0 48 0;
#X connect 50 0 53 0;
#X connect 51 0 54 1;
#X connect 52 0 51 0;
#X connect 53 0 52 0;
#X connect 54 0 4 0;
#X connect 55 0 31 0;
#X restore 62 58 pd debug;
#X obj 62 35 tgl 15 0 empty empty empty 17 7 0 10 -262144 -1 -1 1 1
;
#X obj 113 39 tgl 15 0 empty empty empty 17 7 0 10 -262144 -1 -1 1
1;
#N canvas 427 395 261 164 limiter 0;
#X obj 14 15 inlet~;
#X obj 36 33 env~ 1024;
#X obj 14 71 *~;
#X obj 14 107 outlet~;
#N canvas 362 329 522 282 limiting1 0;
#X obj 166 67 inlet;
#X obj 167 260 outlet;
#X floatatom 166 88 3 0 0 0 - - -, f 3;
#X obj 166 109 moses 60;
#X floatatom 211 130 5 0 0 0 - - -, f 5;
#X obj 211 149 expr (($f1 - $f3) / $f2) - $f1 + $f3;
#X floatatom 317 133 5 0 0 0 - - -, f 5;
#X floatatom 424 106 5 0 0 0 - - -, f 5;
#X floatatom 211 169 5 0 0 0 - - -, f 5;
#X msg 166 129 1;
#X obj 211 187 expr 100 + $f1;
#X floatatom 211 206 5 0 0 0 - - -, f 5;
#X obj 211 226 dbtorms;
#X floatatom 211 244 5 0 0 0 - - -, f 5;
#X obj 317 50 loadbang;
#X obj 317 90 unpack f f;
#X msg 317 69 10 70;
#X connect 0 0 2 0;
#X connect 2 0 3 0;
#X connect 3 0 9 0;
#X connect 3 1 4 0;
#X connect 4 0 5 0;
#X connect 5 0 8 0;
#X connect 6 0 5 1;
#X connect 7 0 5 2;
#X connect 7 0 3 1;
#X connect 8 0 10 0;
#X connect 9 0 1 0;
#X connect 10 0 11 0;
#X connect 11 0 12 0;
#X connect 12 0 13 0;
#X connect 13 0 1 0;
#X connect 14 0 16 0;
#X connect 15 0 6 0;
#X connect 15 1 7 0;
#X connect 16 0 15 0;
#X restore 36 52 pd limiting1;
#X obj 127 21 inlet~;
#X obj 149 39 env~ 1024;
#X obj 127 77 *~;
#X obj 127 113 outlet~;
#N canvas 350 326 521 300 limiting1 0;
#X obj 166 67 inlet;
#X obj 167 260 outlet;
#X floatatom 166 88 3 0 0 0 - - -, f 3;
#X obj 166 109 moses 60;
#X floatatom 211 130 5 0 0 0 - - -, f 5;
#X obj 211 149 expr (($f1 - $f3) / $f2) - $f1 + $f3;
#X floatatom 317 133 5 0 0 0 - - -, f 5;
#X floatatom 424 106 5 0 0 0 - - -, f 5;
#X floatatom 211 169 5 0 0 0 - - -, f 5;
#X msg 166 129 1;
#X obj 211 187 expr 100 + $f1;
#X floatatom 211 206 5 0 0 0 - - -, f 5;
#X obj 211 226 dbtorms;
#X floatatom 211 244 5 0 0 0 - - -, f 5;
#X obj 317 50 loadbang;
#X obj 317 90 unpack f f;
#X msg 317 69 10 100;
#X connect 0 0 2 0;
#X connect 2 0 3 0;
#X connect 3 0 9 0;
#X connect 3 1 4 0;
#X connect 4 0 5 0;
#X connect 5 0 8 0;
#X connect 6 0 5 1;
#X connect 7 0 5 2;
#X connect 7 0 3 1;
#X connect 8 0 10 0;
#X connect 9 0 1 0;
#X connect 10 0 11 0;
#X connect 11 0 12 0;
#X connect 12 0 13 0;
#X connect 13 0 1 0;
#X connect 14 0 16 0;
#X connect 15 0 6 0;
#X connect 15 1 7 0;
#X connect 16 0 15 0;
#X restore 149 58 pd limiting1;
#X connect 0 0 1 0;
#X connect 0 0 2 0;
#X connect 1 0 4 0;
#X connect 2 0 3 0;
#X connect 4 0 2 1;
#X connect 5 0 6 0;
#X connect 5 0 7 0;
#X connect 6 0 9 0;
#X connect 7 0 8 0;
#X connect 9 0 7 1;
#X restore 127 241 pd limiter;
#X obj 62 13 loadbang;
#X msg 64 190 open /Users/ao/Documents/combtones3.aiff;
#X connect 0 0 6 0;
#X connect 1 0 7 0;
#X connect 2 0 6 0;
#X connect 3 0 7 0;
#X connect 8 0 4 0;
#X connect 9 0 4 0;
#X connect 10 0 5 0;
#X connect 10 0 4 0;
#X connect 10 1 5 1;
#X connect 10 1 4 1;
#X connect 11 0 10 1;
#X connect 12 0 10 0;
#X connect 13 0 4 0;
#X connect 13 1 4 1;
#X connect 14 0 12 0;
#X connect 14 0 11 0;
#X connect 15 0 4 0;
#X restore 24 323 pd recordDAC;
#N canvas 283 803 421 344 synths 0;
#N canvas 314 81 450 300 synth4 0;
#X floatatom 155 104 5 0 0 0 - - -, f 5;
#X obj 120 119 pink~;
#X obj 121 165 *~ 16;
#X obj 120 141 bp~ 1000 900;
#X obj 121 191 s~ hz4;
#X floatatom 243 104 5 0 0 0 - - -, f 5;
#X floatatom 239 138 5 0 0 0 - - -, f 5;
#X obj 156 76 inlet;
#X obj 243 77 inlet;
#X obj 322 85 inlet;
#X connect 0 0 3 1;
#X connect 1 0 3 0;
#X connect 2 0 4 0;
#X connect 3 0 2 0;
#X connect 5 0 3 2;
#X connect 6 0 2 1;
#X connect 7 0 0 0;
#X connect 8 0 5 0;
#X connect 9 0 6 0;
#X restore 282 253 pd synth4;
#N canvas 155 632 450 300 synth3 0;
#X floatatom 155 104 5 0 0 0 - - -, f 5;
#X obj 120 119 pink~;
#X obj 121 165 *~ 16;
#X obj 120 141 bp~ 1000 900;
#X floatatom 243 104 5 0 0 0 - - -, f 5;
#X floatatom 239 138 5 0 0 0 - - -, f 5;
#X obj 156 76 inlet;
#X obj 243 77 inlet;
#X obj 322 85 inlet;
#X obj 121 191 s~ hz3;
#X connect 0 0 3 1;
#X connect 1 0 3 0;
#X connect 2 0 9 0;
#X connect 3 0 2 0;
#X connect 4 0 3 2;
#X connect 5 0 2 1;
#X connect 6 0 0 0;
#X connect 7 0 4 0;
#X connect 8 0 5 0;
#X restore 194 251 pd synth3;
#N canvas 314 81 450 300 synth2 0;
#X floatatom 155 104 5 0 0 0 - - -, f 5;
#X obj 120 119 pink~;
#X obj 121 165 *~ 16;
#X obj 120 141 bp~ 1000 900;
#X floatatom 243 104 5 0 0 0 - - -, f 5;
#X floatatom 239 138 5 0 0 0 - - -, f 5;
#X obj 156 76 inlet;
#X obj 243 77 inlet;
#X obj 322 85 inlet;
#X obj 121 191 s~ hz2;
#X connect 0 0 3 1;
#X connect 1 0 3 0;
#X connect 2 0 9 0;
#X connect 3 0 2 0;
#X connect 4 0 3 2;
#X connect 5 0 2 1;
#X connect 6 0 0 0;
#X connect 7 0 4 0;
#X connect 8 0 5 0;
#X restore 115 247 pd synth2;
#N canvas 526 349 450 300 synth1 0;
#X obj 120 119 pink~;
#X obj 121 165 *~ 16;
#X obj 120 141 bp~ 1000 900;
#X floatatom 243 104 5 0 0 0 - - -, f 5;
#X floatatom 239 138 5 0 0 0 - - -, f 5;
#X obj 243 77 inlet;
#X obj 322 85 inlet;
#X obj 121 191 s~ hz1;
#X obj 164 96 inlet;
#X floatatom 164 117 5 0 0 0 - - -, f 5;
#X connect 0 0 2 0;
#X connect 1 0 7 0;
#X connect 2 0 1 0;
#X connect 3 0 2 2;
#X connect 4 0 1 1;
#X connect 5 0 3 0;
#X connect 6 0 4 0;
#X connect 8 0 9 0;
#X connect 9 0 2 1;
#X restore 33 240 pd synth1;
#X obj 30 179 inlet;
#X obj 116 187 inlet;
#X obj 195 190 inlet;
#X obj 242 190 inlet;
#X floatatom 30 200 5 0 0 0 - - -, f 5;
#X floatatom 116 208 5 0 0 0 - - -, f 5;
#X floatatom 195 211 5 0 0 0 - - -, f 5;
#X floatatom 242 211 5 0 0 0 - - -, f 5;
#X msg 79 110;
#X floatatom 79 131 5 0 0 0 - - -, f 5;
#X floatatom 165 132 5 0 0 0 - - -, f 5;
#X msg 165 111 36;
#X msg 164 85 set \$1;
#X floatatom 164 60 5 0 0 0 - - -, f 5;
#X msg 222 43 1;
#X msg 163 18 36;
#X obj 316 129 loadbang;
#X obj 323 163 t b b;
#X connect 4 0 8 0;
#X connect 5 0 9 0;
#X connect 6 0 10 0;
#X connect 7 0 11 0;
#X connect 8 0 3 0;
#X connect 9 0 2 0;
#X connect 10 0 1 0;
#X connect 11 0 0 0;
#X connect 12 0 13 0;
#X connect 13 0 3 1;
#X connect 13 0 2 1;
#X connect 13 0 1 1;
#X connect 13 0 0 1;
#X connect 14 0 3 2;
#X connect 14 0 2 2;
#X connect 14 0 1 2;
#X connect 14 0 0 2;
#X connect 15 0 14 0;
#X connect 16 0 15 0;
#X connect 17 0 16 0;
#X connect 18 0 17 0;
#X connect 19 0 17 0;
#X connect 20 0 21 0;
#X connect 21 0 19 0;
#X connect 21 1 15 0;
#X restore 238 250 pd synths;
#N canvas 480 358 482 422 set-tables 0;
#N canvas 0 22 450 278 (subpatch) 0;
#X array array1 20 float 3;
#A 0 0.185714 0.114285 0.014284 -0.0142877 0.171428 0.3 0.414286 0.485715
0.514287 0.514287 0.514287 0.500001 0.442858 0.400001 0.328572 0.285714
0.285714 0.3 0.314286 0.328572;
#X coords 0 1 20 -1 200 140 1;
#X restore 34 54 graph;
#X msg 311 101 \; array1 0 0.5 \, 1 0.3;
#X restore 23 304 pd set-tables;
#N canvas 543 803 499 132 pitch-tables 0;
#X obj 21 41 inlet;
#X obj 21 85 outlet;
#N canvas 0 23 428 452 element-to-Hz 0;
#X floatatom 37 156 5 0 0 0 - - -, f 5;
#X floatatom 37 233 5 0 0 0 - - -, f 5;
#X obj 37 181 + 0;
#X floatatom 127 234 5 0 0 0 - - -, f 5;
#X obj 127 206 r baseHz;
#X obj 45 75 inlet;
#X obj 49 310 outlet;
#X obj 37 258 * 261.626;
#X obj 37 207 tabread scale2;
#X connect 0 0 2 0;
#X connect 1 0 7 0;
#X connect 2 0 8 0;
#X connect 3 0 7 1;
#X connect 4 0 3 0;
#X connect 5 0 0 0;
#X connect 7 0 6 0;
#X connect 8 0 1 0;
#X restore 21 62 pd element-to-Hz;
#X obj 126 41 inlet;
#X obj 126 85 outlet;
#N canvas 0 23 428 452 element-to-Hz 0;
#X floatatom 37 156 5 0 0 0 - - -, f 5;
#X floatatom 37 233 5 0 0 0 - - -, f 5;
#X obj 37 181 + 0;
#X floatatom 127 234 5 0 0 0 - - -, f 5;
#X obj 127 206 r baseHz;
#X obj 45 75 inlet;
#X obj 49 310 outlet;
#X obj 37 258 * 261.626;
#X obj 37 207 tabread scale2;
#X connect 0 0 2 0;
#X connect 1 0 7 0;
#X connect 2 0 8 0;
#X connect 3 0 7 1;
#X connect 4 0 3 0;
#X connect 5 0 0 0;
#X connect 7 0 6 0;
#X connect 8 0 1 0;
#X restore 126 62 pd element-to-Hz;
#X obj 233 42 inlet;
#X obj 233 86 outlet;
#N canvas 0 23 428 452 element-to-Hz 0;
#X floatatom 37 156 5 0 0 0 - - -, f 5;
#X floatatom 37 233 5 0 0 0 - - -, f 5;
#X obj 37 181 + 0;
#X floatatom 127 234 5 0 0 0 - - -, f 5;
#X obj 127 206 r baseHz;
#X obj 45 75 inlet;
#X obj 49 310 outlet;
#X obj 37 258 * 261.626;
#X obj 37 207 tabread scale2;
#X connect 0 0 2 0;
#X connect 1 0 7 0;
#X connect 2 0 8 0;
#X connect 3 0 7 1;
#X connect 4 0 3 0;
#X connect 5 0 0 0;
#X connect 7 0 6 0;
#X connect 8 0 1 0;
#X restore 233 63 pd element-to-Hz;
#X obj 341 38 inlet;
#X obj 341 82 outlet;
#N canvas 0 23 428 452 element-to-Hz 0;
#X floatatom 37 156 5 0 0 0 - - -, f 5;
#X floatatom 37 233 5 0 0 0 - - -, f 5;
#X obj 37 181 + 0;
#X floatatom 127 234 5 0 0 0 - - -, f 5;
#X obj 127 206 r baseHz;
#X obj 45 75 inlet;
#X obj 49 310 outlet;
#X obj 37 258 * 261.626;
#X obj 37 207 tabread scale2;
#X connect 0 0 2 0;
#X connect 1 0 7 0;
#X connect 2 0 8 0;
#X connect 3 0 7 1;
#X connect 4 0 3 0;
#X connect 5 0 0 0;
#X connect 7 0 6 0;
#X connect 8 0 1 0;
#X restore 341 59 pd element-to-Hz;
#X connect 0 0 2 0;
#X connect 2 0 1 0;
#X connect 3 0 5 0;
#X connect 5 0 4 0;
#X connect 6 0 8 0;
#X connect 8 0 7 0;
#X connect 9 0 11 0;
#X connect 11 0 10 0;
#X restore 207 216 pd pitch-tables;
#N canvas 19 23 1031 851 tuning 0;
#X obj 30 15 r load;
#X obj 30 39 int;
#X obj 30 64 route 1 0;
#X msg 30 160 readout 1 \; scale resize 32 \; scale bounds 0 2 31 1
\; scale xticks 0 1 32 \; scale xlabel 0.9 0 1 2 3 4 5 6 7 8 9 10 11
12 13 14 15 16 17 18 19 20 21 22 23 24 25 26 27 28 29 30 31 \; scale
yticks 1 0.1 2 \; scale ylabel 31.5 1 2 \; scale 0 1 1.01587 1.03704
1.06667 1.09091 1.125 1.14286 1.16667 1.2 1.22727 1.25 1.26984 1.2963
1.33333 1.3545 1.38272 1.42222 1.45455 1.5 1.52381 1.55556 1.6 1.63636
1.6875 1.71429 1.75 1.8 1.84091 1.875 1.90476 1.94444 2 \;;
#X msg 54 94 readout 0 \; scale resize 32 \; scale bounds 0 2 31 1
\; scale const 1 \;;
#X obj 467 101 cnv 15 254 99 empty empty wilson_31.scl -40 -60 0 16
-212343 -258699 0;
#N canvas 0 0 450 168 (subpatch) 0;
#X array scale 32 float 1;
#A 0 1 1.01587 1.03704 1.06667 1.09091 1.125 1.14286 1.16667 1.2 1.22727
1.25 1.26984 1.2963 1.33333 1.3545 1.38272 1.42222 1.45455 1.5 1.52381
1.55556 1.6 1.63636 1.6875 1.71429 1.75 1.8 1.84091 1.875 1.90476 1.94444
2;
#X coords 0 2 31 1 256 100 1;
#X restore 468 100 graph;
#X obj 56 600 cnv 15 254 99 empty empty wilson_31_two_octaves.scl -40
-60 0 16 -212343 -258699 0;
#N canvas 0 0 450 168 (subpatch) 0;
#X array scale2 64 float 1;
#A 0 1 1.01587 1.03704 1.06667 1.09091 1.125 1.14286 1.16667 1.2 1.22727
1.25 1.26984 1.2963 1.33333 1.3545 1.38272 1.42222 1.45455 1.5 1.52381
1.55556 1.6 1.63636 1.6875 1.71429 1.75 1.8 1.84091 1.875 1.90476 1.94444
2 2.03174 2.07408 2.13334 2.18182 2.25 2.28572 2.33334 2.4 2.45454
2.5 2.53968 2.5926 2.66666 2.709 2.76544 2.84444 2.9091 3 3.04762 3.11112
3.2 3.27272 3.375 3.42858 3.5 3.6 3.68182 3.75 3.80952 3.88888 4 0
;
#X coords 0 4 64 1 256 100 1 0 0;
#X restore 55 599 graph;
#X msg 498 415 readout 0 \; scale2 resize 64 \; scale2 bounds 0 4 62
1 \; scale2 const 1 \;;
#X msg 496 482 readout 1 \; scale2 resize 64 \; scale2 bounds 0 2 64
1 \; scale2 xticks 0 1 64 \; scale2 xlabel 0.9 0 1 2 3 4 5 6 7 8 9
10 11 12 13 14 15 16 17 18 19 20 21 22 23 24 25 26 27 28 29 30 31 32
33 34 35 36 37 38 39 40 41 42 43 44 45 46 47 48 49 50 51 52 53 54 55
56 57 58 59 60 61 62 \; scale2 yticks 1 0.1 4 \; scale2 ylabel 63 1
4 \; scale2 0 1 1.01587 1.03704 1.06667 1.09091 1.125 1.14286 1.16667
1.2 1.22727 1.25 1.26984 1.2963 1.33333 1.3545 1.38272 1.42222 1.45455
1.5 1.52381 1.55556 1.6 1.63636 1.6875 1.71429 1.75 1.8 1.84091 1.875
1.90476 1.94444 2 2.03174 2.07408 2.13334 2.18182 2.25 2.28572 2.33334
2.4 2.45454 2.5 2.53968 2.5926 2.66666 2.709 2.76544 2.84444 2.9091
3 3.04762 3.11112 3.2 3.27272 3.375 3.42858 3.5 3.6 3.68182 3.75 3.80952
3.88888 4 \;;
#X connect 0 0 1 0;
#X connect 1 0 2 0;
#X connect 2 0 3 0;
#X connect 2 1 4 0;
#X restore 22 283 pd tuning;
#X floatatom 126 171 5 0 0 0 - - -, f 5;
#X obj 106 15 loadbang;
#X msg 104 45 10000;
#X obj 222 110 s baseHz;
#X floatatom 222 91 5 0 0 0 - - -, f 5;
#X msg 222 70 261;
#X obj 222 50 loadbang;
#X obj 25 18 loadbang;
#X obj 289 52 loadbang;
#X msg 290 80 \; pd dsp 1 \;;
#X msg 359 85 \; pd dsp 0 \;;
#X connect 1 0 2 0;
#X connect 1 0 10 0;
#X connect 1 1 2 1;
#X connect 1 1 10 1;
#X connect 1 2 2 2;
#X connect 1 2 10 2;
#X connect 1 3 2 3;
#X connect 1 3 10 3;
#X connect 3 0 1 0;
#X connect 4 0 3 0;
#X connect 4 1 12 0;
#X connect 5 0 4 0;
#X connect 6 0 4 1;
#X connect 10 0 8 0;
#X connect 10 1 8 1;
#X connect 10 2 8 2;
#X connect 10 3 8 3;
#X connect 12 0 1 1;
#X connect 13 0 14 0;
#X connect 14 0 6 0;
#X connect 16 0 15 0;
#X connect 17 0 16 0;
#X connect 18 0 17 0;
#X connect 20 0 21 0;
