#N canvas 62 350 418 244 10;
#X obj 92 113 unpack f f f f;
#X obj 93 173 a-voice;
#X floatatom 92 147 5 0 0 0 - - -, f 5;
#X floatatom 128 147 5 0 0 0 - - -, f 5;
#X floatatom 166 146 5 0 0 0 - - -, f 5;
#X floatatom 205 146 5 0 0 0 - - -, f 5;
#X obj 92 61 inlet;
#X obj 157 56 inlet;
#X obj 201 56 inlet;
#X obj 92 93 pack f 36 \$1 \$2;
#X connect 0 0 2 0;
#X connect 0 1 3 0;
#X connect 0 2 4 0;
#X connect 0 3 5 0;
#X connect 2 0 1 0;
#X connect 3 0 1 1;
#X connect 4 0 1 2;
#X connect 5 0 1 3;
#X connect 6 0 9 0;
#X connect 7 0 9 2;
#X connect 8 0 9 3;
#X connect 9 0 0 0;
