#N canvas 452 1097 450 529 10;
#X obj 44 487 noteouts-please;
#X floatatom 44 406 5 0 0 0 - - -, f 5;
#X floatatom 80 405 5 0 0 0 - - -, f 5;
#X floatatom 122 405 5 0 0 0 - - -, f 5;
#X floatatom 164 403 5 0 0 0 - - -, f 5;
#X obj 44 359 unpack f f f f;
#X floatatom 92 248 5 0 0 0 - - -, f 5;
#X obj 95 287 t b f;
#X floatatom 44 268 5 0 0 0 - - -, f 5;
#X obj 48 177 inlet;
#X obj 93 176 inlet;
#X obj 183 187 inlet;
#X obj 225 187 inlet;
#X obj 44 321 pack f 36 50 500;
#X connect 1 0 0 0;
#X connect 2 0 0 1;
#X connect 3 0 0 2;
#X connect 4 0 0 3;
#X connect 5 0 1 0;
#X connect 5 1 2 0;
#X connect 5 2 3 0;
#X connect 5 3 4 0;
#X connect 6 0 7 0;
#X connect 7 1 13 1;
#X connect 8 0 13 0;
#X connect 9 0 8 0;
#X connect 10 0 6 0;
#X connect 11 0 13 2;
#X connect 12 0 13 3;
#X connect 13 0 5 0;
