#N canvas 69 880 885 605 10;
#X obj 185 329 ftom;
#X floatatom 185 349 8 0 0 0 - - -, f 8;
#X floatatom 278 406 8 0 0 0 - - -, f 8;
#X obj 185 370 expr imodf($f1) \; modf($f1);
#X obj 157 466 noteout;
#X floatatom 202 416 0 0 0 0 - - -;
#X obj 157 432 f;
#X floatatom 234 434 0 0 0 0 - - -;
#X floatatom 261 433 0 0 0 0 - - -;
#X obj 157 450 makenote 60 64 250;
#X obj 338 463 bendout 1;
#X floatatom 338 440 5 0 0 0 - - -, f 5;
#X obj 338 421 expr (4096 * $f1);
#X obj 157 131 random 22;
#X obj 157 114 bng 15 250 50 0 empty empty empty 17 7 0 10 -262144
-1 -1;
#X obj 157 152 t b f;
#X obj 157 65 tgl 15 0 empty empty empty 17 7 0 10 -262144 -1 -1 0
1;
#X obj 185 231 coll;
#C restore;
#X obj 184 275 unpack f f;
#X msg 285 149 0 261.626 250 \, 1 271.315 250 \, 2 279.067 1000 \,
3 290.695 1000 \, 4 294.329 100 \, 5 305.23 1000 \, 6 313.951 1000
\, 7 327.032 200 \, 8 339.144 300 \, 9 348.834 1000 \, 10 353.195 100
\, 11 367.911 100 \, 12 381.537 100 \, 13 392.438 1000 \, 14 406.973
200 \, 15 418.601 300 \, 16 436.043 1000 \, 17 441.493 100 \, 18 457.845
200 \, 19 470.926 400 \, 20 490.548 1000 \, 21 508.716 200 \, 22 523.251
1000;
#X floatatom 185 300 5 0 0 0 - - -, f 5;
#X floatatom 242 299 5 0 0 0 - - -, f 5;
#X floatatom 185 200 5 0 0 0 - - -, f 5;
#X obj 157 96 metro 2000;
#X connect 0 0 1 0;
#X connect 1 0 3 0;
#X connect 2 0 12 0;
#X connect 3 0 5 0;
#X connect 3 1 2 0;
#X connect 5 0 6 1;
#X connect 6 0 9 0;
#X connect 7 0 9 1;
#X connect 8 0 9 2;
#X connect 9 0 4 0;
#X connect 9 1 4 1;
#X connect 11 0 10 0;
#X connect 12 0 11 0;
#X connect 13 0 15 0;
#X connect 14 0 13 0;
#X connect 15 0 6 0;
#X connect 15 1 22 0;
#X connect 16 0 23 0;
#X connect 17 0 18 0;
#X connect 18 0 20 0;
#X connect 18 1 21 0;
#X connect 19 0 17 0;
#X connect 20 0 0 0;
#X connect 21 0 8 0;
#X connect 22 0 17 0;
#X connect 23 0 14 0;
