#N canvas 19 524 1050 963 10;
#X floatatom 141 704 5 0 0 0 - - -, f 5;
#X obj 141 725 osc~;
#X obj 129 903 dac~;
#X obj 140 777 *~, f 2;
#X msg 345 569 \$1 1000;
#X obj 345 591 line~;
#X floatatom 345 547 5 0 0 0 - - -, f 5;
#X floatatom 104 638 5 0 0 0 - - -, f 5;
#X obj 345 499 line;
#X msg 346 382 99 4000;
#X obj 407 416 pipe 4000;
#X obj 407 437 spigot;
#X obj 347 403 t l b;
#X msg 407 480 0;
#X obj 407 459 bng 15 250 50 0 empty empty empty 17 7 0 10 -262144
-1 -1;
#X obj 450 437 tgl 15 0 empty empty empty 17 7 0 10 -262144 -1 -1 1
1;
#X obj 346 340 metro 4000;
#X obj 346 363 bng 15 250 50 0 empty empty empty 17 7 0 10 -262144
-1 -1;
#X obj 346 322 tgl 15 0 empty empty empty 17 7 0 10 -262144 -1 -1 1
1;
#X floatatom 86 704 8 0 0 0 - - -, f 8;
#X obj 105 725 osc~;
#X obj 104 780 *~, f 2;
#X obj 105 682 * 4, f 4;
#X obj 141 683 * 5;
#X obj 180 682 * 6;
#X obj 216 681 * 7;
#X floatatom 180 704 5 0 0 0 - - -, f 5;
#X obj 180 725 osc~;
#X obj 179 777 *~, f 2;
#X floatatom 220 704 5 0 0 0 - - -, f 5;
#X obj 221 726 osc~;
#X obj 222 777 *~;
#X msg 206 457 12 15 16 18;
#X obj 36 826 osc~;
#X obj 36 853 *~, f 2;
#X obj 36 801 * 0.5;
#X msg 498 531 \$1 1000;
#X obj 498 553 line~;
#X floatatom 498 509 5 0 0 0 - - -, f 5;
#X obj 498 461 line;
#X msg 499 344 99 4000;
#X obj 560 378 pipe 4000;
#X obj 560 399 spigot;
#X obj 500 365 t l b;
#X msg 560 442 0;
#X obj 560 421 bng 15 250 50 0 empty empty empty 17 7 0 10 -262144
-1 -1;
#X obj 598 402 tgl 15 0 empty empty empty 17 7 0 10 -262144 -1 -1 1
1;
#X obj 76 826 osc~;
#X obj 76 853 *~, f 2;
#X obj 76 801 * 0.5;
#X msg 173 411 5 6 9 0;
#X msg 196 434 9 12 14 0;
#X obj 345 637 *~;
#X floatatom 362 614 5 0 0 0 - - -, f 5;
#X obj 498 593 *~;
#X floatatom 515 570 5 0 0 0 - - -, f 5;
#X obj 127 824 osc~;
#X obj 127 851 *~, f 2;
#X obj 127 799 * 0.5;
#X obj 167 824 osc~;
#X obj 167 851 *~, f 2;
#X obj 167 799 * 0.5;
#X obj 104 589 cyclone/pak f f f f f;
#X floatatom 228 567 5 0 0 0 - - -, f 5;
#X obj 104 609 unpack f f f f f;
#X floatatom 195 548 5 0 0 0 - - -, f 5;
#X floatatom 162 563 5 0 0 0 - - -, f 5;
#X floatatom 133 545 5 0 0 0 - - -, f 5;
#X floatatom 104 517 4 0 0 0 - - -, f 4;
#X obj 142 509 unpack f f f f;
#X obj 146 363 cyclone/coll;
#C restore;
#X obj 120 309 cyclone/coll;
#C restore;
#X obj 385 225 loadbang;
#X obj 385 247 t 0.2 0.1 b b b;
#X msg 140 392 4 5 6 0;
#X floatatom 120 160 5 0 290 0 - - -, f 5;
#X msg 154 175 read /Users/ao/Documents/Pd/abstractions-for-microtonal/intervals.txt
;
#X obj 458 223 bng 15 250 50 0 empty empty empty 17 7 0 10 -262144
-1 -1;
#X msg 385 274 0.2;
#X msg 415 274 0.1;
#X msg 651 494 write slow-decay-envelope.txt;
#N canvas 496 369 453 376 random-arrays 0;
#X obj 23 201 outlet;
#X obj 24 125 inlet;
#X obj 23 174 expr ($f1 + 1) / 2;
#X obj 142 278 print;
#X obj 142 234 bng 15 250 50 0 empty empty empty 17 7 0 10 -262144
-1 -1;
#X obj 133 153 array;
#X obj 142 254 array get table12;
#X obj 133 126 inlet;
#X msg 185 137 read slow-decay-envelope.txt;
#X obj 185 117 bng 15 250 50 0 empty empty empty 17 7 0 10 -262144
-1 -1;
#X obj 186 97 inlet;
#X obj 24 150 tabread table16;
#X connect 1 0 11 0;
#X connect 2 0 0 0;
#X connect 4 0 6 0;
#X connect 6 0 3 0;
#X connect 7 0 5 0;
#X connect 8 0 5 0;
#X connect 9 0 8 0;
#X connect 10 0 9 0;
#X connect 11 0 2 0;
#X restore 498 487 pd random-arrays;
#N canvas 496 369 453 376 random-arrays 0;
#X obj 23 201 outlet;
#X obj 24 125 inlet;
#X obj 23 174 expr ($f1 + 1) / 2;
#X obj 142 278 print;
#X obj 142 234 bng 15 250 50 0 empty empty empty 17 7 0 10 -262144
-1 -1;
#X obj 133 153 array;
#X obj 142 254 array get table12;
#X obj 133 126 inlet;
#X msg 185 137 read slow-decay-envelope.txt;
#X obj 185 117 bng 15 250 50 0 empty empty empty 17 7 0 10 -262144
-1 -1;
#X obj 186 97 inlet;
#X obj 24 150 tabread table16;
#X connect 1 0 11 0;
#X connect 2 0 0 0;
#X connect 4 0 6 0;
#X connect 6 0 3 0;
#X connect 7 0 5 0;
#X connect 8 0 5 0;
#X connect 9 0 8 0;
#X connect 10 0 9 0;
#X connect 11 0 2 0;
#X restore 343 521 pd random-arrays;
#X obj 120 134 + 1;
#X obj 121 105 f;
#X obj 121 86 bng 15 250 50 0 empty empty empty 17 7 0 10 -262144 -1
-1;
#X msg 154 83 0;
#X floatatom 605 152 5 0 0 0 - - -, f 5;
#X floatatom 739 105 5 0 0 0 - - -, f 5;
#X floatatom 605 99 5 0 0 0 - - -, f 5;
#X floatatom 871 107 5 0 0 0 - - -, f 5;
#X msg 741 80 30;
#X obj 605 127 expr if($f1 < $f2 \, if($f1 < $f3 \, 64 \, 32) \, 16)
;
#X msg 868 87 15;
#X msg 241 497 31 32 33 39;
#X msg 227 474 16 18 20 22;
#X floatatom 585 924 5 0 0 0 - - -, f 5;
#X floatatom 698 814 5 0 0 0 - - -, f 5;
#X floatatom 585 818 5 0 0 0 - - -, f 5;
#X floatatom 854 852 5 0 0 0 - - -, f 5;
#X msg 697 790 30;
#X floatatom 929 855 5 0 0 0 - - -, f 5;
#X msg 935 822 50;
#X msg 861 819 180;
#X obj 740 336 mtof;
#X floatatom 738 276 5 0 0 0 - - -, f 5;
#X floatatom 740 357 5 0 0 0 - - -, f 5;
#X obj 587 894 expr if($f1 + $f2 < $f3 \, if($f1 + $f2 < $f4 \, 65.4
\, 32.7) \, 16.35);
#X obj 33 726 ftom;
#X floatatom 33 747 5 0 0 0 - - -, f 5;
#X connect 0 0 1 0;
#X connect 0 0 49 0;
#X connect 1 0 3 0;
#X connect 3 0 2 1;
#X connect 4 0 5 0;
#X connect 5 0 52 0;
#X connect 6 0 4 0;
#X connect 7 0 22 0;
#X connect 7 0 23 0;
#X connect 7 0 24 0;
#X connect 7 0 25 0;
#X connect 8 0 82 0;
#X connect 9 0 12 0;
#X connect 10 0 11 0;
#X connect 11 0 14 0;
#X connect 12 0 8 0;
#X connect 12 1 10 0;
#X connect 13 0 8 0;
#X connect 14 0 13 0;
#X connect 15 0 11 1;
#X connect 16 0 17 0;
#X connect 16 0 85 0;
#X connect 17 0 9 0;
#X connect 17 0 40 0;
#X connect 18 0 16 0;
#X connect 19 0 20 0;
#X connect 19 0 35 0;
#X connect 19 0 108 0;
#X connect 20 0 21 0;
#X connect 21 0 2 0;
#X connect 22 0 19 0;
#X connect 23 0 0 0;
#X connect 24 0 26 0;
#X connect 25 0 29 0;
#X connect 26 0 27 0;
#X connect 26 0 58 0;
#X connect 27 0 28 0;
#X connect 28 0 2 1;
#X connect 29 0 30 0;
#X connect 29 0 61 0;
#X connect 30 0 31 0;
#X connect 31 0 2 0;
#X connect 32 0 69 0;
#X connect 33 0 34 0;
#X connect 34 0 2 0;
#X connect 35 0 33 0;
#X connect 36 0 37 0;
#X connect 37 0 54 0;
#X connect 38 0 36 0;
#X connect 39 0 81 0;
#X connect 40 0 43 0;
#X connect 41 0 42 0;
#X connect 42 0 45 0;
#X connect 43 0 39 0;
#X connect 43 1 41 0;
#X connect 44 0 39 0;
#X connect 45 0 44 0;
#X connect 46 0 42 1;
#X connect 47 0 48 0;
#X connect 48 0 2 1;
#X connect 49 0 47 0;
#X connect 50 0 69 0;
#X connect 51 0 69 0;
#X connect 52 0 21 1;
#X connect 52 0 3 1;
#X connect 52 0 28 1;
#X connect 52 0 31 1;
#X connect 53 0 52 1;
#X connect 54 0 48 1;
#X connect 54 0 34 1;
#X connect 54 0 57 1;
#X connect 54 0 60 1;
#X connect 55 0 54 1;
#X connect 56 0 57 0;
#X connect 57 0 2 0;
#X connect 58 0 56 0;
#X connect 59 0 60 0;
#X connect 60 0 2 1;
#X connect 61 0 59 0;
#X connect 62 0 64 0;
#X connect 63 0 62 4;
#X connect 64 0 7 0;
#X connect 64 1 22 1;
#X connect 64 2 23 1;
#X connect 64 3 24 1;
#X connect 64 4 25 1;
#X connect 65 0 62 3;
#X connect 66 0 62 2;
#X connect 67 0 62 1;
#X connect 68 0 62 0;
#X connect 69 0 67 0;
#X connect 69 1 66 0;
#X connect 69 1 98 0;
#X connect 69 2 65 0;
#X connect 69 2 97 0;
#X connect 69 3 63 0;
#X connect 71 0 69 0;
#X connect 72 0 73 0;
#X connect 73 0 78 0;
#X connect 73 1 79 0;
#X connect 73 2 74 0;
#X connect 73 3 15 0;
#X connect 73 4 46 0;
#X connect 74 0 69 0;
#X connect 75 0 71 0;
#X connect 76 0 71 0;
#X connect 77 0 73 0;
#X connect 78 0 53 0;
#X connect 79 0 55 0;
#X connect 81 0 38 0;
#X connect 82 0 6 0;
#X connect 83 0 84 1;
#X connect 83 0 75 0;
#X connect 84 0 83 0;
#X connect 85 0 84 0;
#X connect 86 0 84 0;
#X connect 88 0 92 1;
#X connect 89 0 92 0;
#X connect 90 0 92 2;
#X connect 91 0 88 0;
#X connect 92 0 87 0;
#X connect 93 0 90 0;
#X connect 94 0 69 0;
#X connect 95 0 69 0;
#X connect 96 0 68 0;
#X connect 97 0 107 1;
#X connect 98 0 107 0;
#X connect 99 0 107 2;
#X connect 100 0 97 0;
#X connect 101 0 107 3;
#X connect 102 0 101 0;
#X connect 103 0 99 0;
#X connect 104 0 106 0;
#X connect 105 0 104 0;
#X connect 107 0 96 0;
#X connect 108 0 109 0;
