#N canvas 44 337 914 305 10;
#X floatatom 5 155 5 0 0 0 - - -, f 5;
#X obj 5 178 a-voice2 50 1000;
#X floatatom 112 154 5 0 0 0 - - -, f 5;
#X obj 5 134 unpack f f f f;
#X obj 5 64 random 5;
#X obj 5 4 tgl 15 0 empty empty empty 17 7 0 10 -262144 -1 -1 0 1;
#X obj 5 44 bng 15 250 50 0 empty empty empty 17 7 0 10 -262144 -1
-1;
#X obj 5 25 metro 1500;
#X obj 5 88 + 10;
#X floatatom 219 154 5 0 0 0 - - -, f 5;
#X floatatom 324 152 5 0 0 0 - - -, f 5;
#X obj 5 113 loadacoll mycoll.txt;
#X floatatom 431 156 5 0 0 0 - - -, f 5;
#X floatatom 538 155 5 0 0 0 - - -, f 5;
#X obj 431 135 unpack f f f f;
#X floatatom 645 155 5 0 0 0 - - -, f 5;
#X floatatom 750 153 5 0 0 0 - - -, f 5;
#X obj 272 107 pipe 750;
#X obj 112 177 a-voice2 50 1000;
#X obj 219 177 a-voice2 50 1000;
#X obj 324 175 a-voice2 50 1000;
#X obj 431 179 a-voice2 50 1000;
#X obj 538 178 a-voice2 50 1000;
#X obj 645 178 a-voice2 50 1000;
#X obj 750 176 a-voice2 50 1000;
#X obj 431 114 loadacoll mycoll.txt;
#X connect 0 0 1 0;
#X connect 2 0 18 0;
#X connect 3 0 0 0;
#X connect 3 1 2 0;
#X connect 3 2 9 0;
#X connect 3 3 10 0;
#X connect 4 0 8 0;
#X connect 5 0 7 0;
#X connect 6 0 4 0;
#X connect 7 0 6 0;
#X connect 8 0 11 0;
#X connect 8 0 17 0;
#X connect 9 0 19 0;
#X connect 10 0 20 0;
#X connect 11 0 3 0;
#X connect 12 0 21 0;
#X connect 13 0 22 0;
#X connect 14 0 12 0;
#X connect 14 1 13 0;
#X connect 14 2 15 0;
#X connect 14 3 16 0;
#X connect 15 0 23 0;
#X connect 16 0 24 0;
#X connect 17 0 25 0;
#X connect 25 0 14 0;
