#N canvas 52 879 1297 530 10;
#X obj 61 367 noteout;
#X floatatom 106 317 0 0 0 0 - - -;
#X obj 61 333 f;
#X floatatom 198 339 0 0 0 0 - - -;
#X floatatom 225 338 0 0 0 0 - - -;
#X floatatom 61 273 5 36 67 0 - - -, f 5;
#X obj 268 367 noteout;
#X floatatom 313 317 0 0 0 0 - - -;
#X obj 268 333 f;
#X floatatom 345 335 0 0 0 0 - - -;
#X floatatom 372 334 0 0 0 0 - - -;
#X floatatom 268 278 5 36 67 0 - - -, f 5;
#X obj 61 252 + 36;
#X obj 268 258 + 36;
#X obj 121 355 makenote 60 64 1000;
#X obj 268 351 makenote 60 64 1000;
#X obj 419 369 noteout;
#X floatatom 464 319 0 0 0 0 - - -;
#X obj 419 335 f;
#X floatatom 496 337 0 0 0 0 - - -;
#X floatatom 523 336 0 0 0 0 - - -;
#X floatatom 419 278 5 36 67 0 - - -, f 5;
#X obj 566 365 noteout;
#X floatatom 611 315 0 0 0 0 - - -;
#X obj 566 331 f;
#X floatatom 643 333 0 0 0 0 - - -;
#X floatatom 541 338 0 0 0 0 - - -;
#X floatatom 566 273 5 36 67 0 - - -, f 5;
#X obj 419 258 + 36;
#X obj 566 252 + 36;
#X obj 419 353 makenote 60 64 1000;
#X obj 566 349 makenote 60 64 1000;
#X obj 125 197 unpack f f f f;
#X msg 65 156 0 11 17 30;
#X obj 390 139 pak f f f f;
#X floatatom 388 100 5 0 0 0 - - -, f 5;
#X floatatom 428 100 5 0 0 0 - - -, f 5;
#X floatatom 472 100 5 0 0 0 - - -, f 5;
#X floatatom 512 100 5 0 0 0 - - -, f 5;
#X msg 216 142 0 10 18 28;
#X floatatom 383 172 5 0 0 0 - - -, f 5;
#X obj 611 164 coll;
#C restore;
#X msg 474 166 46;
#X msg 723 101 0 0 10 18 28 \, 1 1 11 19 29 \, 2 2 12 20 30 \, 3 3
13 21 31 \, 4 4 14 22 32 \, 5 5 15 23 33 \, 6 6 16 24 34 \, 7 7 17
25 35 \, 8 8 18 26 36 \, 9 9 19 27 37 \, 10 10 20 28 38 \, 11 11 21
29 39 \, 12 12 22 30 40 \, 13 13 23 31 41 \, 14 14 24 32 42 \, 15 15
25 33 43 \, 16 16 26 34 44 \, 17 17 27 35 45 \, 18 18 28 36 46 \, 19
19 29 37 47 \, 20 20 30 38 48 \, 21 21 31 39 49 \, 22 22 32 40 50 \,
23 23 33 41 51 \, 24 24 34 42 52 \, 25 25 35 43 53 \, 26 26 36 44 54
\, 27 27 37 45 55 \, 28 28 38 46 56 \, 29 29 39 47 57 \, 30 30 40 48
58 \, 31 31 41 49 59 \,;
#X floatatom 608 99 5 0 0 0 - - -, f 5;
#X floatatom 388 100 5 0 0 0 - - -, f 5;
#X floatatom 428 100 5 0 0 0 - - -, f 5;
#X msg 853 100 0 0 4 8 12 \, 1 1 5 9 13 \, 2 2 6 10 14 \, 3 3 7 11
15 \, 4 4 8 12 16 \, 5 5 9 13 17 \, 6 6 10 14 18 \, 7 7 11 15 19 \,
8 8 12 16 20 \, 9 9 13 17 21 \, 10 10 14 18 22 \, 11 11 15 19 23 \,
12 12 16 20 24 \, 13 13 17 21 25 \, 14 14 18 22 26 \, 15 15 19 23 27
\, 16 16 20 24 28 \, 17 17 21 25 29 \, 18 18 22 26 30 \, 19 19 23 27
31 \, 20 20 24 28 32 \, 21 21 25 29 33 \, 22 22 26 30 34 \, 23 23 27
31 35 \, 24 24 28 32 36 \, 25 25 29 33 37 \, 26 26 30 34 38 \, 27 27
31 35 39 \, 28 28 32 36 40 \, 29 29 33 37 41 \, 30 30 34 38 42 \,;
#X obj 853 84 coll;
#C restore;
#X floatatom 850 19 5 0 0 0 - - -, f 5;
#X obj 983 102 coll;
#C restore;
#X floatatom 980 37 5 0 0 0 - - -, f 5;
#X msg 983 118 0 0 9 17 32 \, 1 1 10 18 33 \, 2 2 11 19 34 \, 3 3 12
20 35 \, 4 4 13 21 36 \, 5 5 14 22 37 \, 6 6 15 23 38 \, 7 7 16 24
39 \, 8 8 17 25 40 \, 9 9 18 26 41 \, 10 10 19 27 42 \, 11 11 20 28
43 \, 12 12 21 29 44 \, 13 13 22 30 45 \, 14 14 23 31 46 \, 15 15 24
32 47 \, 16 16 25 33 48 \, 17 17 26 34 49 \, 18 18 27 35 50 \, 19 19
28 36 51 \, 20 20 29 37 52 \, 21 21 30 38 53 \, 22 22 31 39 54 \, 23
23 32 40 55 \, 24 24 33 41 56 \, 25 25 34 42 57 \, 26 26 35 43 58 \,
27 27 36 44 59 \, 28 28 37 45 60 \, 29 29 38 46 61 \, 30 30 39 47 62
\,;
#X connect 1 0 2 1;
#X connect 2 0 14 0;
#X connect 3 0 14 1;
#X connect 4 0 14 2;
#X connect 5 0 2 0;
#X connect 7 0 8 1;
#X connect 8 0 15 0;
#X connect 9 0 15 1;
#X connect 10 0 15 2;
#X connect 11 0 8 0;
#X connect 12 0 5 0;
#X connect 13 0 11 0;
#X connect 14 0 0 0;
#X connect 14 1 0 1;
#X connect 15 0 6 0;
#X connect 15 1 6 1;
#X connect 17 0 18 1;
#X connect 18 0 30 0;
#X connect 19 0 30 1;
#X connect 20 0 30 2;
#X connect 21 0 18 0;
#X connect 23 0 24 1;
#X connect 24 0 31 0;
#X connect 25 0 31 1;
#X connect 26 0 31 2;
#X connect 27 0 24 0;
#X connect 28 0 21 0;
#X connect 29 0 27 0;
#X connect 30 0 16 0;
#X connect 30 1 16 1;
#X connect 31 0 22 0;
#X connect 31 1 22 1;
#X connect 32 0 12 0;
#X connect 32 1 13 0;
#X connect 32 2 28 0;
#X connect 32 3 29 0;
#X connect 33 0 32 0;
#X connect 34 0 32 0;
#X connect 35 0 34 0;
#X connect 36 0 34 1;
#X connect 37 0 34 2;
#X connect 38 0 34 3;
#X connect 39 0 32 0;
#X connect 40 0 12 1;
#X connect 40 0 13 1;
#X connect 40 0 28 1;
#X connect 40 0 29 1;
#X connect 41 0 32 0;
#X connect 42 0 40 0;
#X connect 43 0 41 0;
#X connect 44 0 41 0;
#X connect 47 0 48 0;
#X connect 48 0 32 0;
#X connect 49 0 48 0;
#X connect 50 0 32 0;
#X connect 51 0 50 0;
#X connect 52 0 50 0;
