#N canvas 510 994 472 470 10;
#X floatatom 36 117 5 0 0 0 - - -, f 5;
#X obj 36 234 outlet;
#X obj 36 90 inlet;
#X msg 95 79 0 0 8 22 24 \, 1 0 9 23 30 \, 2 0 1 9 15 \, 3 0 6 19 28
\, 4 0 21 23 32 \, 5 0 2 3 20 \, 6 0 6 19 30 \, 7 0 15 25 32 \, 8 0
3 19 21 \, 9 0 13 17 18 \, 10 0 16 27 28 \, 11 0 2 18 32 \, 12 0 13
15 23 \, 13 0 10 15 19 \, 14 0 17 20 22 \, 15 0 21 24 25 \, 16 0 18
20 23 \, 17 0 1 26 29 \, 18 0 12 15 30 \, 19 0 1 21 24 \,;
#X obj 95 57 loadbang;
#X obj 36 210 coll \$1;
#C restore;
#X connect 0 0 5 0;
#X connect 2 0 0 0;
#X connect 4 0 3 0;
#X connect 5 0 1 0;
