#N canvas 346 1077 520 440 10;
#X obj 121 339 noteout;
#X floatatom 166 289 0 0 0 0 - - -;
#X obj 121 305 f;
#X floatatom 198 307 0 0 0 0 - - -;
#X floatatom 225 306 0 0 0 0 - - -;
#X floatatom 121 250 5 36 67 0 - - -, f 5;
#X obj 121 230 + 36;
#X obj 121 323 makenote 60 64 1000;
#X obj 121 202 inlet;
#X obj 163 206 inlet;
#X obj 208 202 inlet;
#X obj 251 202 inlet;
#X connect 1 0 2 1;
#X connect 2 0 7 0;
#X connect 3 0 7 1;
#X connect 4 0 7 2;
#X connect 5 0 2 0;
#X connect 6 0 5 0;
#X connect 7 0 0 0;
#X connect 7 1 0 1;
#X connect 8 0 6 0;
#X connect 9 0 6 1;
#X connect 10 0 3 0;
#X connect 11 0 4 0;
