#N canvas 391 508 450 477 10;
#X obj 72 180 outlet;
#X obj 73 104 inlet;
#X obj 272 231 outlet;
#X obj 72 153 expr ($f1 + 1) / 2;
#X floatatom 274 112 5 0 0 0 - - -, f 5;
#X floatatom 210 171 5 0 0 0 - - -, f 5;
#X obj 163 267 print;
#X obj 163 223 bng 15 250 50 0 empty empty empty 17 7 0 10 -262144
-1 -1;
#X obj 299 299 array;
#X obj 163 243 array get table8;
#X obj 73 129 tabread table8;
#X obj 229 63 tgl 15 0 empty empty empty 17 7 0 10 -262144 -1 -1 0
1;
#X obj 259 78 expr abs($f1 - 1);
#X obj 196 123 spigot;
#X obj 185 88 sel 0;
#X connect 1 0 10 0;
#X connect 3 0 0 0;
#X connect 7 0 9 0;
#X connect 9 0 6 0;
#X connect 10 0 3 0;
#X connect 11 0 12 0;
