#N canvas 171 583 271 362 10;
#X obj 10 10 r~ hz1;
#X obj 10 32 r~ hz2;
#X obj 10 54 r~ hz3;
#X obj 10 76 r~ hz4;
#X obj 79 9 r~ hz5;
#X obj 79 31 r~ hz6;
#X obj 79 53 r~ hz7;
#X obj 79 75 r~ hz8;
#X obj 10 110 s~ left;
#X obj 79 111 s~ right;
#X obj 9 138 r~ left~;
#X obj 78 139 r~ right~;
#X obj 9 160 writesf~ 2;
#X connect 0 0 8 0;
#X connect 1 0 8 0;
#X connect 2 0 8 0;
#X connect 3 0 8 0;
#X connect 4 0 9 0;
#X connect 5 0 9 0;
#X connect 6 0 9 0;
#X connect 7 0 9 0;
#X connect 10 0 12 0;
#X connect 11 0 12 1;
