#N canvas 73 707 828 519 10;
#N canvas 0 23 450 300 out-in-1-1 0;
#X obj 131 126 inlet;
#X obj 131 176 outlet;
#X obj 131 152 f;
#X connect 0 0 2 0;
#X connect 2 0 1 0;
#X restore 31 16 pd out-in-1-1;
#N canvas 0 23 450 300 out-in-2-2 0;
#X obj 131 126 inlet;
#X obj 131 176 outlet;
#X obj 131 152 f;
#X obj 251 124 inlet;
#X obj 251 174 outlet;
#X obj 251 150 f;
#X connect 0 0 2 0;
#X connect 2 0 1 0;
#X connect 3 0 5 0;
#X connect 5 0 4 0;
#X restore 119 16 pd out-in-2-2;
#N canvas 587 29 209 290 timings 0;
#X obj 30 28 inlet;
#X obj 96 214 outlet;
#X msg 31 146 99 4000;
#X obj 32 167 t l b;
#X obj 30 85 metro 4000;
#X obj 31 127 bng 15 250 50 0 empty empty empty 17 7 0 10 -262144 -1
-1;
#X obj 30 67 tgl 15 0 empty empty empty 17 7 0 10 -262144 -1 -1 1 1
;
#X obj 28 210 outlet;
#X connect 0 0 6 0;
#X connect 2 0 3 0;
#X connect 3 0 1 0;
#X connect 3 1 7 0;
#X connect 4 0 5 0;
#X connect 5 0 2 0;
#X connect 6 0 4 0;
#X restore 98 162 pd timings;
#N canvas 89 297 725 474 choices 0;
#X obj 386 78 inlet;
#X obj 387 389 outlet;
#X obj 454 12 inlet;
#X obj 433 389 outlet;
#X obj 454 38 f;
#X floatatom 511 314 5 0 0 0 - - -, f 5;
#X floatatom 478 295 5 0 0 0 - - -, f 5;
#X floatatom 445 310 5 0 0 0 - - -, f 5;
#X floatatom 416 292 5 0 0 0 - - -, f 5;
#X obj 411 176 cyclone/coll;
#C restore;
#X msg 35 138 read /Users/ao/Documents/Pd/abstractions-for-microtonal/intervals.txt
;
#X floatatom 2 317 5 0 0 0 - - -, f 5;
#X floatatom 117 267 5 0 0 0 - - -, f 5;
#X floatatom 4 263 5 0 0 0 - - -, f 5;
#X floatatom 183 261 5 0 0 0 - - -, f 5;
#X msg 116 243 30;
#X floatatom 263 258 5 0 0 0 - - -, f 5;
#X msg 263 237 50;
#X msg 182 236 180;
#X obj 387 336 cyclone/pak f f f f f f;
#X obj 387 356 unpack f f f f f f;
#X floatatom 569 314 5 0 0 0 - - -, f 5;
#X obj 415 270 unpack f f f f f;
#X floatatom 411 100 5 0 0 0 - - -, f 5;
#X obj 454 59 + 1;
#N canvas 301 948 450 300 examples 0;
#X obj 131 126 inlet;
#X obj 131 176 outlet;
#X obj 131 152 f;
#X connect 0 0 2 0;
#X connect 2 0 1 0;
#X restore 553 42 pd examples;
#X obj 477 389 outlet;
#X obj 522 391 outlet;
#X obj 566 391 outlet;
#X obj 611 391 outlet;
#X obj 35 101 loadbang;
#X obj 28 27 expr if($f1 + $f2 < $f3 \, if($f1 + $f2 < $f4 \, if ($f1
+ $f2 < $f5 \, 130.813 \, 65.4064) \, 32.7032) \, 16.3516);
#X floatatom 28 5 5 0 0 0 - - -, f 5;
#X obj 4 287 expr if($f1 + $f2 < $f3 \, if($f1 + $f2 < $f4 \, if ($f1
+ $f2 < $f5 \, 130.813 \, 65.4064) \, 32.7032) \, 16.3516);
#X floatatom 339 262 5 0 0 0 - - -, f 5;
#X obj 218 184 t b b b b;
#X msg 339 241 12;
#X obj 454 79 mod 280;
#X connect 0 0 23 0;
#X connect 2 0 4 0;
#X connect 4 0 24 0;
#X connect 5 0 19 4;
#X connect 6 0 19 3;
#X connect 7 0 19 2;
#X connect 8 0 19 1;
#X connect 9 0 22 0;
#X connect 10 0 9 0;
#X connect 11 0 19 0;
#X connect 12 0 33 1;
#X connect 13 0 33 0;
#X connect 14 0 33 2;
#X connect 15 0 12 0;
#X connect 16 0 33 3;
#X connect 17 0 16 0;
#X connect 18 0 14 0;
#X connect 19 0 20 0;
#X connect 20 0 1 0;
#X connect 20 1 3 0;
#X connect 20 2 26 0;
#X connect 20 3 27 0;
#X connect 20 4 28 0;
#X connect 20 5 29 0;
#X connect 21 0 19 5;
#X connect 22 0 8 0;
#X connect 22 1 7 0;
#X connect 22 1 13 0;
#X connect 22 2 6 0;
#X connect 22 2 12 0;
#X connect 22 3 5 0;
#X connect 22 4 21 0;
#X connect 23 0 9 0;
#X connect 24 0 4 1;
#X connect 24 0 37 0;
#X connect 30 0 10 0;
#X connect 30 0 35 0;
#X connect 32 0 31 0;
#X connect 33 0 11 0;
#X connect 34 0 33 4;
#X connect 35 0 15 0;
#X connect 35 1 18 0;
#X connect 35 2 17 0;
#X connect 35 3 36 0;
#X connect 36 0 34 0;
#X connect 37 0 23 0;
#X restore 38 278 pd choices;
#N canvas 141 527 414 529 voices 0;
#X obj 113 36 inlet;
#X obj 66 101 outlet;
#X obj 67 75 f;
#X obj 187 47 inlet;
#X obj 194 99 outlet;
#X obj 187 73 f;
#X obj 147 475 dac~;
#X floatatom 165 200 8 0 0 0 - - -, f 8;
#X obj 165 227 osc~;
#X obj 183 308 *~, f 2;
#X obj 165 179 * 4, f 4;
#X obj 142 334 osc~;
#X obj 142 361 *~, f 2;
#X obj 142 309 * 0.5;
#X obj 99 248 ftom;
#X floatatom 99 269 5 0 0 0 - - -, f 5;
#X obj 267 49 inlet;
#X obj 267 75 f;
#X obj 323 46 inlet;
#X obj 323 72 f;
#X floatatom 75 158 5 0 0 0 - - -, f 5;
#X connect 0 0 2 0;
#X connect 0 0 10 0;
#X connect 2 0 1 0;
#X connect 3 0 5 0;
#X connect 5 0 4 0;
#X connect 5 0 10 1;
#X connect 7 0 8 0;
#X connect 7 0 13 0;
#X connect 7 0 14 0;
#X connect 8 0 9 0;
#X connect 9 0 6 0;
#X connect 10 0 7 0;
#X connect 11 0 12 0;
#X connect 12 0 6 0;
#X connect 13 0 11 0;
#X connect 14 0 15 0;
#X connect 16 0 17 0;
#X connect 17 0 9 1;
#X connect 18 0 19 0;
#X connect 19 0 12 1;
#X connect 20 0 10 0;
#X restore 36 56 pd voices;
#N canvas 416 1140 548 346 voice 0;
#X obj 122 42 inlet;
#X obj 167 42 inlet;
#X obj 167 68 f;
#X obj 104 215 dac~;
#X floatatom 122 106 8 0 0 0 - - -, f 8;
#X obj 154 154 osc~;
#X obj 154 186 *~;
#X obj 122 85 * 4, f 4;
#X obj 104 157 osc~;
#X obj 104 184 *~;
#X obj 104 132 * 0.5;
#X obj 37 136 ftom;
#X floatatom 37 157 5 0 0 0 - - -, f 5;
#X obj 37 177 outlet;
#X obj 256 52 inlet~;
#X obj 238 184 outlet;
#X obj 254 98 *~;
#X obj 303 99 *~;
#X obj 372 31 loadbang;
#X msg 368 60 0.6;
#X msg 408 61 0.3;
#X connect 0 0 7 0;
#X connect 1 0 2 0;
#X connect 2 0 7 1;
#X connect 2 0 15 0;
#X connect 4 0 5 0;
#X connect 4 0 10 0;
#X connect 4 0 11 0;
#X connect 5 0 6 0;
#X connect 6 0 3 1;
#X connect 7 0 4 0;
#X connect 8 0 9 0;
#X connect 9 0 3 0;
#X connect 10 0 8 0;
#X connect 11 0 12 0;
#X connect 12 0 13 0;
#X connect 14 0 16 0;
#X connect 14 0 17 0;
#X connect 16 0 9 1;
#X connect 17 0 6 1;
#X connect 18 0 19 0;
#X connect 18 0 20 0;
#X connect 19 0 16 1;
#X connect 20 0 17 1;
#X restore 221 294 pd voice;
#X floatatom 38 251 5 0 290 0 - - -, f 5;
#X obj 198 177 tgl 15 0 empty empty empty 17 7 0 10 -262144 -1 -1 1
1;
#X obj 98 144 tgl 15 0 empty empty empty 17 7 0 10 -262144 -1 -1 1
1;
#X obj 98 187 bng 15 250 50 0 empty empty empty 17 7 0 10 -262144 -1
-1;
#X floatatom 221 338 5 0 0 0 - - -, f 5;
#X msg 36 176 20;
#X msg 44 193 72;
#X msg 53 210 133;
#X msg 62 227 177;
#X obj 37 301 s hz;
#X obj 221 272 r hz;
#X obj 153 224 s~ amp;
#X obj 266 273 r~ amp;
#N canvas 192 1105 548 346 voice 0;
#X obj 122 42 inlet;
#X obj 167 42 inlet;
#X obj 167 68 f;
#X obj 104 215 dac~;
#X floatatom 122 106 8 0 0 0 - - -, f 8;
#X obj 154 154 osc~;
#X obj 154 186 *~;
#X obj 122 85 * 4, f 4;
#X obj 104 157 osc~;
#X obj 104 184 *~;
#X obj 104 132 * 0.5;
#X obj 37 136 ftom;
#X floatatom 37 157 5 0 0 0 - - -, f 5;
#X obj 37 177 outlet;
#X obj 256 52 inlet~;
#X obj 238 184 outlet;
#X obj 254 98 *~;
#X obj 303 99 *~;
#X obj 372 31 loadbang;
#X msg 368 60 0.6;
#X msg 408 61 0.3;
#X connect 0 0 7 0;
#X connect 1 0 2 0;
#X connect 2 0 7 1;
#X connect 2 0 15 0;
#X connect 4 0 5 0;
#X connect 4 0 10 0;
#X connect 4 0 11 0;
#X connect 5 0 6 0;
#X connect 6 0 3 1;
#X connect 7 0 4 0;
#X connect 8 0 9 0;
#X connect 9 0 3 0;
#X connect 10 0 8 0;
#X connect 11 0 12 0;
#X connect 12 0 13 0;
#X connect 14 0 16 0;
#X connect 14 0 17 0;
#X connect 16 0 9 1;
#X connect 17 0 6 1;
#X connect 18 0 19 0;
#X connect 18 0 20 0;
#X connect 19 0 16 1;
#X connect 20 0 17 1;
#X restore 324 297 pd voice;
#X obj 324 275 r hz;
#X obj 369 276 r~ amp;
#N canvas 192 1105 548 346 voice 0;
#X obj 122 42 inlet;
#X obj 167 42 inlet;
#X obj 167 68 f;
#X obj 104 215 dac~;
#X floatatom 122 106 8 0 0 0 - - -, f 8;
#X obj 154 154 osc~;
#X obj 154 186 *~;
#X obj 122 85 * 4, f 4;
#X obj 104 157 osc~;
#X obj 104 184 *~;
#X obj 104 132 * 0.5;
#X obj 37 136 ftom;
#X floatatom 37 157 5 0 0 0 - - -, f 5;
#X obj 37 177 outlet;
#X obj 256 52 inlet~;
#X obj 238 184 outlet;
#X obj 254 98 *~;
#X obj 303 99 *~;
#X obj 372 31 loadbang;
#X msg 368 60 0.6;
#X msg 408 61 0.3;
#X connect 0 0 7 0;
#X connect 1 0 2 0;
#X connect 2 0 7 1;
#X connect 2 0 15 0;
#X connect 4 0 5 0;
#X connect 4 0 10 0;
#X connect 4 0 11 0;
#X connect 5 0 6 0;
#X connect 6 0 3 1;
#X connect 7 0 4 0;
#X connect 8 0 9 0;
#X connect 9 0 3 0;
#X connect 10 0 8 0;
#X connect 11 0 12 0;
#X connect 12 0 13 0;
#X connect 14 0 16 0;
#X connect 14 0 17 0;
#X connect 16 0 9 1;
#X connect 17 0 6 1;
#X connect 18 0 19 0;
#X connect 18 0 20 0;
#X connect 19 0 16 1;
#X connect 20 0 17 1;
#X restore 418 298 pd voice;
#X obj 418 276 r hz;
#X obj 463 277 r~ amp;
#N canvas 192 1105 548 346 voice 0;
#X obj 122 42 inlet;
#X obj 167 42 inlet;
#X obj 167 68 f;
#X obj 104 215 dac~;
#X floatatom 122 106 8 0 0 0 - - -, f 8;
#X obj 154 154 osc~;
#X obj 154 186 *~;
#X obj 122 85 * 4, f 4;
#X obj 104 157 osc~;
#X obj 104 184 *~;
#X obj 104 132 * 0.5;
#X obj 37 136 ftom;
#X floatatom 37 157 5 0 0 0 - - -, f 5;
#X obj 37 177 outlet;
#X obj 256 52 inlet~;
#X obj 238 184 outlet;
#X obj 254 98 *~;
#X obj 303 99 *~;
#X obj 372 31 loadbang;
#X msg 368 60 0.6;
#X msg 408 61 0.3;
#X connect 0 0 7 0;
#X connect 1 0 2 0;
#X connect 2 0 7 1;
#X connect 2 0 15 0;
#X connect 4 0 5 0;
#X connect 4 0 10 0;
#X connect 4 0 11 0;
#X connect 5 0 6 0;
#X connect 6 0 3 1;
#X connect 7 0 4 0;
#X connect 8 0 9 0;
#X connect 9 0 3 0;
#X connect 10 0 8 0;
#X connect 11 0 12 0;
#X connect 12 0 13 0;
#X connect 14 0 16 0;
#X connect 14 0 17 0;
#X connect 16 0 9 1;
#X connect 17 0 6 1;
#X connect 18 0 19 0;
#X connect 18 0 20 0;
#X connect 19 0 16 1;
#X connect 20 0 17 1;
#X restore 515 300 pd voice;
#X obj 515 278 r hz;
#X obj 560 279 r~ amp;
#N canvas 192 1105 548 346 voice 0;
#X obj 122 42 inlet;
#X obj 167 42 inlet;
#X obj 167 68 f;
#X obj 104 215 dac~;
#X floatatom 122 106 8 0 0 0 - - -, f 8;
#X obj 154 154 osc~;
#X obj 154 186 *~;
#X obj 122 85 * 4, f 4;
#X obj 104 157 osc~;
#X obj 104 184 *~;
#X obj 104 132 * 0.5;
#X obj 37 136 ftom;
#X floatatom 37 157 5 0 0 0 - - -, f 5;
#X obj 37 177 outlet;
#X obj 256 52 inlet~;
#X obj 238 184 outlet;
#X obj 254 98 *~;
#X obj 303 99 *~;
#X obj 372 31 loadbang;
#X msg 368 60 0.6;
#X msg 408 61 0.3;
#X connect 0 0 7 0;
#X connect 1 0 2 0;
#X connect 2 0 7 1;
#X connect 2 0 15 0;
#X connect 4 0 5 0;
#X connect 4 0 10 0;
#X connect 4 0 11 0;
#X connect 5 0 6 0;
#X connect 6 0 3 1;
#X connect 7 0 4 0;
#X connect 8 0 9 0;
#X connect 9 0 3 0;
#X connect 10 0 8 0;
#X connect 11 0 12 0;
#X connect 12 0 13 0;
#X connect 14 0 16 0;
#X connect 14 0 17 0;
#X connect 16 0 9 1;
#X connect 17 0 6 1;
#X connect 18 0 19 0;
#X connect 18 0 20 0;
#X connect 19 0 16 1;
#X connect 20 0 17 1;
#X restore 611 298 pd voice;
#X obj 611 276 r hz;
#X obj 656 277 r~ amp;
#N canvas 236 646 450 300 notenames 1;
#X obj 131 141 coll;
#C restore;
#X msg 178 100 read notenames.txt;
#X floatatom 125 92 5 0 0 0 - - -, f 5;
#X obj 80 241 outlet;
#X obj 80 42 inlet;
#X obj 125 70 int;
#X obj 126 212 unpack f s;
#X obj 332 56 inlet;
#X obj 332 77 outlet;
#X obj 178 72 loadbang;
#X obj 183 240 outlet;
#X connect 0 0 6 0;
#X connect 1 0 0 0;
#X connect 2 0 0 0;
#X connect 4 0 3 0;
#X connect 4 0 5 0;
#X connect 5 0 2 0;
#X connect 6 1 10 0;
#X connect 7 0 8 0;
#X connect 9 0 1 0;
#X restore 221 314 pd notenames;
#X symbolatom 255 356 4 0 0 0 - - -, f 4;
#X floatatom 290 334 5 0 0 0 - - -, f 5;
#X floatatom 339 341 5 0 0 0 - - -, f 5;
#N canvas 236 646 450 300 notenames 0;
#X obj 131 141 coll;
#C restore;
#X msg 178 100 read notenames.txt;
#X floatatom 125 92 5 0 0 0 - - -, f 5;
#X obj 80 241 outlet;
#X obj 80 42 inlet;
#X obj 125 70 int;
#X obj 183 240 outlet;
#X obj 126 212 unpack f s;
#X obj 332 56 inlet;
#X obj 332 77 outlet;
#X obj 178 72 loadbang;
#X connect 0 0 7 0;
#X connect 1 0 0 0;
#X connect 2 0 0 0;
#X connect 4 0 3 0;
#X connect 4 0 5 0;
#X connect 5 0 2 0;
#X connect 7 1 6 0;
#X connect 8 0 9 0;
#X connect 10 0 1 0;
#X restore 339 317 pd notenames;
#X symbolatom 373 359 4 0 0 0 - - -, f 4;
#X floatatom 408 337 5 0 0 0 - - -, f 5;
#X floatatom 454 343 5 0 0 0 - - -, f 5;
#N canvas 236 646 450 300 notenames 0;
#X obj 131 141 coll;
#C restore;
#X msg 178 100 read notenames.txt;
#X floatatom 125 92 5 0 0 0 - - -, f 5;
#X obj 80 241 outlet;
#X obj 80 42 inlet;
#X obj 125 70 int;
#X obj 183 240 outlet;
#X obj 126 212 unpack f s;
#X obj 332 56 inlet;
#X obj 332 77 outlet;
#X obj 178 72 loadbang;
#X connect 0 0 7 0;
#X connect 1 0 0 0;
#X connect 2 0 0 0;
#X connect 4 0 3 0;
#X connect 4 0 5 0;
#X connect 5 0 2 0;
#X connect 7 1 6 0;
#X connect 8 0 9 0;
#X connect 10 0 1 0;
#X restore 454 319 pd notenames;
#X symbolatom 488 361 4 0 0 0 - - -, f 4;
#X floatatom 523 339 5 0 0 0 - - -, f 5;
#X floatatom 572 346 5 0 0 0 - - -, f 5;
#N canvas 236 646 450 300 notenames 0;
#X obj 131 141 coll;
#C restore;
#X msg 178 100 read notenames.txt;
#X floatatom 125 92 5 0 0 0 - - -, f 5;
#X obj 80 241 outlet;
#X obj 80 42 inlet;
#X obj 125 70 int;
#X obj 183 240 outlet;
#X obj 126 212 unpack f s;
#X obj 332 56 inlet;
#X obj 332 77 outlet;
#X obj 178 72 loadbang;
#X connect 0 0 7 0;
#X connect 1 0 0 0;
#X connect 2 0 0 0;
#X connect 4 0 3 0;
#X connect 4 0 5 0;
#X connect 5 0 2 0;
#X connect 7 1 6 0;
#X connect 8 0 9 0;
#X connect 10 0 1 0;
#X restore 572 322 pd notenames;
#X symbolatom 606 364 4 0 0 0 - - -, f 4;
#X floatatom 641 342 5 0 0 0 - - -, f 5;
#X floatatom 680 339 5 0 0 0 - - -, f 5;
#N canvas 236 646 450 300 notenames 0;
#X obj 131 141 coll;
#C restore;
#X msg 178 100 read notenames.txt;
#X floatatom 125 92 5 0 0 0 - - -, f 5;
#X obj 80 241 outlet;
#X obj 80 42 inlet;
#X obj 125 70 int;
#X obj 183 240 outlet;
#X obj 126 212 unpack f s;
#X obj 332 56 inlet;
#X obj 332 77 outlet;
#X obj 178 72 loadbang;
#X connect 0 0 7 0;
#X connect 1 0 0 0;
#X connect 2 0 0 0;
#X connect 4 0 3 0;
#X connect 4 0 5 0;
#X connect 5 0 2 0;
#X connect 7 1 6 0;
#X connect 8 0 9 0;
#X connect 10 0 1 0;
#X restore 680 315 pd notenames;
#X symbolatom 714 357 4 0 0 0 - - -, f 4;
#X floatatom 749 335 5 0 0 0 - - -, f 5;
#N canvas 0 23 726 620 lines 0;
#X obj 71 60 inlet;
#X obj 226 94 inlet;
#X obj 226 120 f;
#X msg 70 267 \$1 1000;
#X obj 70 289 line~;
#X floatatom 70 245 5 0 0 0 - - -, f 5;
#X obj 70 197 line;
#X obj 132 114 pipe 4000;
#X obj 132 135 spigot;
#X obj 72 101 t l b;
#X msg 132 178 0;
#X obj 132 157 bng 15 250 50 0 empty empty empty 17 7 0 10 -262144
-1 -1;
#X obj 175 135 tgl 15 0 empty empty empty 17 7 0 10 -262144 -1 -1 1
1;
#X obj 70 335 *~;
#X floatatom 87 312 5 0 0 0 - - -, f 5;
#N canvas 496 369 453 376 random-arrays 0;
#X obj 23 201 outlet;
#X obj 24 125 inlet;
#X obj 23 174 expr ($f1 + 1) / 2;
#X obj 142 278 print;
#X obj 142 234 bng 15 250 50 0 empty empty empty 17 7 0 10 -262144
-1 -1;
#X obj 133 126 inlet;
#X msg 213 102 read slow-decay-envelope.txt;
#X obj 213 82 bng 15 250 50 0 empty empty empty 17 7 0 10 -262144 -1
-1;
#X obj 214 62 inlet;
#X obj 133 153 array define env1;
#X obj 24 150 tabread env1;
#X obj 142 254 array get env1;
#X connect 1 0 10 0;
#X connect 2 0 0 0;
#X connect 4 0 11 0;
#X connect 5 0 9 0;
#X connect 6 0 9 0;
#X connect 7 0 6 0;
#X connect 8 0 7 0;
#X connect 10 0 2 0;
#X connect 11 0 3 0;
#X restore 68 219 pd random-arrays;
#X obj 70 360 outlet~;
#X obj 267 131 loadbang;
#X msg 234 289 0.5;
#X connect 0 0 9 0;
#X connect 1 0 2 0;
#X connect 2 0 12 0;
#X connect 3 0 4 0;
#X connect 4 0 13 0;
#X connect 5 0 3 0;
#X connect 6 0 15 0;
#X connect 7 0 8 0;
#X connect 8 0 11 0;
#X connect 9 0 6 0;
#X connect 9 1 7 0;
#X connect 10 0 6 0;
#X connect 11 0 10 0;
#X connect 12 0 8 1;
#X connect 13 0 16 0;
#X connect 14 0 13 1;
#X connect 15 0 5 0;
#X connect 17 0 18 0;
#X connect 18 0 14 0;
#X restore 153 201 pd lines;
#X connect 2 0 9 0;
#X connect 2 1 50 0;
#X connect 3 0 15 0;
#X connect 3 1 5 1;
#X connect 3 2 19 1;
#X connect 3 3 22 1;
#X connect 3 4 25 1;
#X connect 3 5 28 1;
#X connect 5 0 31 0;
#X connect 5 1 31 1;
#X connect 6 0 3 0;
#X connect 7 0 50 1;
#X connect 8 0 2 0;
#X connect 9 0 3 1;
#X connect 11 0 6 0;
#X connect 12 0 6 0;
#X connect 13 0 6 0;
#X connect 14 0 6 0;
#X connect 16 0 5 0;
#X connect 18 0 5 2;
#X connect 19 0 35 0;
#X connect 19 1 35 1;
#X connect 20 0 19 0;
#X connect 21 0 19 2;
#X connect 22 0 39 0;
#X connect 22 1 39 1;
#X connect 23 0 22 0;
#X connect 24 0 22 2;
#X connect 25 0 43 0;
#X connect 25 1 43 1;
#X connect 26 0 25 0;
#X connect 27 0 25 2;
#X connect 28 0 47 0;
#X connect 28 1 47 1;
#X connect 29 0 28 0;
#X connect 30 0 28 2;
#X connect 31 0 10 0;
#X connect 31 1 32 0;
#X connect 31 2 33 0;
#X connect 35 0 34 0;
#X connect 35 1 36 0;
#X connect 35 2 37 0;
#X connect 39 0 38 0;
#X connect 39 1 40 0;
#X connect 39 2 41 0;
#X connect 43 0 42 0;
#X connect 43 1 44 0;
#X connect 43 2 45 0;
#X connect 47 0 46 0;
#X connect 47 1 48 0;
#X connect 47 2 49 0;
#X connect 50 0 17 0;
